dummy_motion.mot																		
nRows=25																		
nColumns=19																		
name dummy_motion.mot																		
datacolumns 19																		
datarows 25																		
range 37.51 37.75																		
endheader																		
time	pelvis_tilt	pelvis_tx	pelvis_ty	hip_flexion_r	hip_adduction_r	hip_rotation_r	knee_angle_r	ankle_angle_r	hip_flexion_l	hip_adduction_l	hip_rotation_l	knee_angle_l	ankle_angle_l	lumbar_extension	lumbar_bending	lumbar_rotation	subtalar_angle_r	subtalar_angle_l
37.51	0	0	0	-18.57873832	8.952760601	-25.88218802	7.148483202	6.509704336	-18.57873832	8.952760601	-25.88218802	7.148483202	6.509704336	53.00961093	13.42914093	-38.82328211	-31.33181687	-31.33181687
37.52	0	0	0	-20.86009633	-19.14371222	6.643033055	-52.03967379	-11.49555137	-20.86009633	-19.14371222	6.643033055	-52.03967379	-11.49555137	-79.06181689	-28.71556838	9.964549603	-10.74021531	-10.74021531
37.53	0	0	0	48.04376819	-18.114254	29.45882378	-65.00743312	-48.39803909	48.04376819	-18.114254	29.45882378	-65.00743312	-48.39803909	61.68289046	-27.17138106	44.18823575	28.89174613	28.89174613
37.54	0	0	0	-39.12674602	-20.66119961	-3.801669523	-103.6405201	11.84150836	-39.12674602	-20.66119961	-3.801669523	-103.6405201	11.84150836	77.5870796	-30.99179948	-5.702504296	-29.57720586	-29.57720586
37.55	0	0	0	-47.41993025	29.15147468	-20.48491011	-4.810360886	22.33103925	-47.41993025	29.15147468	-20.48491011	-4.810360886	22.33103925	46.66665668	43.72721212	-30.72736522	-15.30222467	-15.30222467
37.56	0	0	0	64.51129468	-14.96610934	23.21002808	-93.65751638	6.320973801	64.51129468	-14.96610934	23.21002808	-93.65751638	6.320973801	-68.69599271	-22.44916406	34.81504218	41.98247882	41.98247882
37.57	0	0	0	9.729325467	-7.642516729	-20.17798185	8.99386167	-7.031049544	9.729325467	-7.642516729	-20.17798185	8.99386167	-7.031049544	-67.32643902	-11.46377512	-30.26697284	27.56633369	27.56633369
37.58	0	0	0	-42.47040651	-1.240834538	-29.89584363	-52.39440587	7.740283088	-42.47040651	-1.240834538	-29.89584363	-52.39440587	7.740283088	-35.99971186	-1.861251811	-44.84376554	-25.0030863	-25.0030863
37.59	0	0	0	29.1072004	-11.73491511	21.86156249	-97.19448767	25.66566178	29.1072004	-11.73491511	21.86156249	-97.19448767	25.66566178	-22.19616663	-17.6023727	32.7923438	44.97958104	44.97958104
37.6	0	0	0	-37.21479045	12.68553773	28.44215985	-118.5882959	11.40231961	-37.21479045	12.68553773	28.44215985	-118.5882959	11.40231961	28.11915843	19.02830664	42.66323987	-39.26351723	-39.26351723
37.61	0	0	0	-58.02743963	-1.747354549	13.29448056	7.089202814	9.072389342	-58.02743963	-1.747354549	13.29448056	7.089202814	9.072389342	62.40307262	-2.621031829	19.94172089	-6.706519372	-6.706519372
37.62	0	0	0	44.94040338	7.602115339	13.23930012	-6.940405507	12.90863425	44.94040338	7.602115339	13.23930012	-6.940405507	12.90863425	50.13154151	11.40317303	19.85895023	-8.609566312	-8.609566312
37.63	0	0	0	14.95303012	-17.50324722	2.996481779	-46.82619131	1.509743613	14.95303012	-17.50324722	2.996481779	-46.82619131	1.509743613	35.78941355	-26.25487088	4.494722678	-8.97364045	-8.97364045
37.64	0	0	0	49.56163729	-6.503502474	6.121169211	-119.4235301	9.715951547	49.56163729	-6.503502474	6.121169211	-119.4235301	9.715951547	-3.828798045	-9.755253731	9.181753835	-34.92696205	-34.92696205
37.65	0	0	0	-15.56136955	-19.73559271	-23.63644255	-16.07112218	25.2589336	-15.56136955	-19.73559271	-23.63644255	-16.07112218	25.2589336	-19.40729627	-29.60338913	-35.4546639	-6.812030409	-6.812030409
37.66	0	0	0	65.41489227	4.832010801	11.31816003	-58.99969782	5.179430163	65.41489227	4.832010801	11.31816003	-58.99969782	5.179430163	8.853768827	7.248016217	16.97724009	10.21912944	10.21912944
37.67	0	0	0	47.99870489	-13.39414841	19.5331805	-100.7050111	-18.16322907	47.99870489	-13.39414841	19.5331805	-100.7050111	-18.16322907	17.10505024	-20.09122266	29.29977081	43.92551572	43.92551572
37.68	0	0	0	-6.177129342	-24.47733247	17.28032091	9.31996098	4.009074801	-6.177129342	-24.47733247	17.28032091	9.31996098	4.009074801	-79.26823611	-36.71599877	25.92048142	-25.2089299	-25.2089299
37.69	0	0	0	-2.057422705	-14.36182507	-23.98398069	3.352135683	17.38563958	-2.057422705	-14.36182507	-23.98398069	3.352135683	17.38563958	75.45786501	-21.54273766	-35.97597111	-13.13270299	-13.13270299
37.7	0	0	0	-9.528313592	20.23191577	24.9301377	-46.2630398	2.715384149	-9.528313592	20.23191577	24.9301377	-46.2630398	2.715384149	-3.135445364	30.34787372	37.39520662	-21.03823087	-21.03823087
37.71	0	0	0	-40.03712208	15.17765268	-8.281423616	-75.31089868	-20.38752562	-40.03712208	15.17765268	-8.281423616	-75.31089868	-20.38752562	-76.75497876	22.76647907	-12.42213545	-18.76517694	-18.76517694
37.72	0	0	0	-17.71040549	-8.128309852	-10.51985755	-33.52542107	-20.75110697	-17.71040549	-8.128309852	-10.51985755	-33.52542107	-20.75110697	-28.2950592	-12.1924648	-15.77978636	-28.04494126	-28.04494126
37.73	0	0	0	73.48032258	5.978616085	27.39907076	-112.9458233	-45.0189234	73.48032258	5.978616085	27.39907076	-112.9458233	-45.0189234	7.328846699	8.967924145	41.09860623	-42.94263387	-42.94263387
37.74	0	0	0	-31.48164822	-9.436050508	-24.55087343	-113.165763	-22.38509772	-31.48164822	-9.436050508	-24.55087343	-113.165763	-22.38509772	18.91584832	-14.15407579	-36.82631022	-4.553623625	-4.553623625
37.75	0	0	0	-50.92356908	-3.811214428	15.22944571	-38.91360002	-17.42414425	-50.92356908	-3.811214428	15.22944571	-38.91360002	-17.42414425	49.82121483	-5.716821653	22.84416861	-23.07238259	-23.07238259
